<?xml version="1.0" standalone="no"?>
<!DOCTYPE svg PUBLIC "-//W3C//DTD SVG 20010904//EN"
 "http://www.w3.org/TR/2001/REC-SVG-20010904/DTD/svg10.dtd">
<svg version="1.0" xmlns="http://www.w3.org/2000/svg"
 width="900.000000pt" height="900.000000pt" viewBox="0 0 900.000000 900.000000"
 preserveAspectRatio="xMidYMid meet">
<metadata>
Created by potrace 1.11, written by Peter Selinger 2001-2013
</metadata>
<g transform="translate(0.000000,900.000000) scale(0.100000,-0.100000)"
fill="#000000" stroke="none">
<path d="M170 7615 l0 -85 -85 0 -85 0 0 -85 0 -85 85 0 85 0 0 -85 0 -85 -85
0 -85 0 0 -85 0 -85 85 0 85 0 0 -85 0 -85 -85 0 -85 0 0 -85 0 -85 85 0 85 0
0 -85 0 -85 -85 0 -85 0 0 -85 0 -85 85 0 85 0 0 -85 0 -85 -85 0 -85 0 0 -85
0 -85 85 0 85 0 0 -85 0 -85 -85 0 -85 0 0 -85 0 -85 85 0 85 0 0 -85 0 -85
-85 0 -85 0 0 -85 0 -85 85 0 85 0 0 -85 0 -85 -85 0 -85 0 0 -85 c0 -53 4
-85 11 -85 5 0 7 -5 4 -10 -10 -16 13 -39 88 -87 37 -24 67 -51 67 -58 0 -9
10 -15 25 -15 14 0 52 -12 85 -27 l60 -28 0 -57 0 -58 -85 0 -85 0 0 85 0 85
-85 0 -85 0 0 -85 0 -85 85 0 85 0 0 -85 0 -85 -85 0 -85 0 0 -85 0 -85 85 0
85 0 0 -85 0 -85 -85 0 -85 0 0 -85 0 -85 85 0 85 0 0 -85 0 -85 -85 0 -85 0
0 -85 0 -85 85 0 85 0 0 -85 0 -85 -85 0 -85 0 0 -85 0 -85 85 0 85 0 0 -85 0
-85 -85 0 -85 0 0 -85 0 -85 85 0 85 0 0 -85 0 -85 -85 0 -85 0 0 -85 0 -85
85 0 85 0 0 -85 0 -85 -85 0 -85 0 0 -85 0 -85 85 0 85 0 0 -85 0 -85 -85 0
-85 0 0 -85 0 -85 85 0 85 0 0 -85 0 -85 -85 0 -85 0 0 -85 0 -85 85 0 85 0 0
-85 0 -85 -85 0 -85 0 0 -55 0 -55 85 0 85 0 0 55 0 55 85 0 85 0 0 -55 0 -55
85 0 85 0 0 55 0 55 85 0 85 0 0 -55 0 -55 85 0 85 0 0 55 0 55 85 0 85 0 0
-55 0 -55 85 0 85 0 0 55 0 55 85 0 85 0 0 -55 0 -55 85 0 85 0 0 55 0 55 85
0 85 0 0 -55 0 -55 85 0 85 0 0 55 0 55 85 0 85 0 0 -55 0 -55 85 0 85 0 0 55
0 55 85 0 85 0 0 -55 0 -55 85 0 85 0 0 55 0 55 85 0 85 0 0 -55 0 -55 85 0
85 0 0 55 0 55 85 0 85 0 0 -55 0 -55 85 0 85 0 0 55 c0 52 1 55 25 55 14 0
25 -4 25 -10 0 -32 20 -50 42 -39 10 5 17 13 17 17 -4 24 4 32 31 32 30 0 30
-1 30 -55 l0 -55 85 0 85 0 0 55 0 55 85 0 85 0 0 -55 0 -55 85 0 85 0 0 55 0
55 85 0 85 0 0 -55 0 -55 85 0 85 0 0 55 0 55 85 0 85 0 0 -55 0 -55 85 0 85
0 0 55 0 55 85 0 85 0 0 -55 0 -55 85 0 85 0 0 55 0 55 85 0 85 0 0 -55 0 -55
85 0 85 0 0 55 0 55 85 0 85 0 0 -55 0 -55 85 0 85 0 0 55 0 55 85 0 85 0 0
-55 0 -55 85 0 85 0 0 55 0 55 85 0 85 0 0 -55 0 -55 85 0 85 0 0 55 0 55 85
0 85 0 0 -55 0 -55 85 0 85 0 0 55 0 55 85 0 85 0 0 -55 0 -55 85 0 85 0 0 55
0 55 85 0 85 0 0 -55 0 -55 85 0 85 0 0 55 0 55 85 0 85 0 0 -55 0 -55 85 0
85 0 0 55 0 55 85 0 85 0 0 -55 0 -55 85 0 85 0 0 55 0 55 85 0 85 0 0 -55 0
-55 85 0 85 0 0 55 0 55 85 0 85 0 0 -55 0 -55 85 0 85 0 0 55 0 55 85 0 85 0
0 -55 0 -55 80 0 80 0 0 55 0 55 -80 0 -80 0 0 85 0 85 80 0 80 0 0 85 0 85
-80 0 -80 0 0 85 0 85 80 0 80 0 0 85 0 85 -80 0 -80 0 0 85 0 85 80 0 80 0 0
85 0 85 -80 0 -80 0 0 85 0 85 80 0 80 0 0 85 0 85 -80 0 -80 0 0 85 0 85 80
0 80 0 0 85 0 85 -80 0 -80 0 0 85 0 85 80 0 80 0 0 85 0 85 -80 0 -80 0 0 85
0 85 80 0 80 0 0 85 0 85 -80 0 -80 0 0 85 0 85 80 0 80 0 0 85 0 85 -80 0
-80 0 0 85 0 85 80 0 80 0 0 85 0 85 -80 0 -80 0 0 85 0 85 80 0 80 0 0 85 0
85 -80 0 -80 0 0 85 0 85 80 0 80 0 0 85 0 85 -80 0 -80 0 0 85 0 85 80 0 80
0 0 85 0 85 -80 0 -80 0 0 85 0 85 80 0 80 0 0 85 0 85 -80 0 -80 0 0 73 c0
43 5 78 12 85 7 7 40 12 80 12 l68 0 0 85 c0 79 -1 85 -21 85 -18 0 -20 4 -14
33 4 17 10 36 13 42 8 14 11 36 18 158 l7 107 -82 0 -81 0 0 85 0 85 80 0 80
0 0 85 0 85 -80 0 -80 0 0 85 0 85 80 0 80 0 0 85 0 85 -80 0 -80 0 0 85 0 85
80 0 80 0 0 85 0 85 -80 0 -80 0 0 85 0 85 -85 0 -85 0 0 -85 0 -85 -85 0 -85
0 0 85 0 85 -85 0 -85 0 0 -85 0 -85 -85 0 -85 0 0 85 0 85 -85 0 -85 0 0 -85
0 -85 -85 0 -85 0 0 85 0 85 -85 0 -85 0 0 -85 0 -85 -85 0 -85 0 0 85 0 85
-85 0 -85 0 0 -85 0 -85 -85 0 -85 0 0 85 0 85 -85 0 -85 0 0 -85 0 -85 -85 0
-85 0 0 85 0 85 -85 0 -85 0 0 -85 0 -85 -85 0 -85 0 0 85 0 85 -85 0 -85 0 0
-85 0 -85 -84 0 c-77 0 -84 -2 -89 -21 -4 -15 -10 -18 -19 -13 -7 5 -38 14
-68 20 l-55 11 73 2 72 1 0 85 0 85 -85 0 -85 0 0 -85 0 -85 -37 6 c-21 3 -58
7 -83 9 l-45 2 -3 77 -3 76 -84 0 -85 0 0 -85 0 -85 -85 0 c-76 0 -85 -2 -85
-18 0 -10 -6 -19 -12 -20 -47 -3 -87 -10 -97 -16 -6 -4 -11 -5 -11 -2 0 3 -11
1 -25 -4 -24 -9 -25 -8 -25 25 l0 35 85 0 85 0 0 85 0 85 -85 0 -85 0 0 -85 0
-85 -85 0 -85 0 0 85 0 85 -85 0 -85 0 0 -85 0 -85 -85 0 -85 0 0 85 0 85 -85
0 -85 0 0 -85 0 -85 85 0 85 0 0 -44 0 -45 -49 15 c-81 24 -121 43 -121 59 0
11 -11 15 -39 15 -21 0 -59 9 -85 20 l-46 21 0 64 0 65 -85 0 c-84 0 -85 0
-85 -25 0 -30 3 -30 -48 -5 -53 26 -66 26 -53 1 6 -10 7 -21 4 -25 -3 -3 -1
-6 5 -6 7 0 11 -3 11 -7 -1 -5 0 -11 1 -15 1 -5 3 -11 4 -15 1 -5 10 -23 19
-40 l18 -33 -66 0 -65 0 0 85 0 85 -85 0 -85 0 0 -85 0 -85 -85 0 -85 0 0 85
0 85 -85 0 -85 0 0 -85 0 -85 -85 0 -85 0 0 85 0 85 -85 0 -85 0 0 -85 0 -85
-85 0 -85 0 0 85 0 85 -85 0 -85 0 0 -85 0 -85 -85 0 -85 0 0 85 0 85 -85 0
-85 0 0 -85 0 -85 -85 0 -85 0 0 85 0 85 -85 0 -85 0 0 -85 0 -85 -85 0 -85 0
0 85 0 85 -85 0 -85 0 0 -85 0 -85 -85 0 -85 0 0 85 0 85 -85 0 -85 0 0 -85 0
-85 -85 0 -85 0 0 85 0 85 -85 0 -85 0 0 -85 0 -85 -85 0 -85 0 0 85 0 85 -85
0 -85 0 0 -85 0 -85 -85 0 -85 0 0 85 0 85 -85 0 -85 0 0 -85 0 -85 -85 0 -85
0 0 85 0 85 -85 0 -85 0 0 -85z m170 -170 l0 -85 85 0 85 0 0 85 0 85 85 0 85
0 0 -85 0 -85 85 0 85 0 0 85 0 85 85 0 85 0 0 -85 0 -85 85 0 85 0 0 85 0 85
85 0 85 0 0 -85 0 -85 85 0 85 0 0 85 0 85 85 0 85 0 0 -85 0 -85 85 0 85 0 0
85 0 85 85 0 85 0 0 -85 0 -85 85 0 85 0 0 85 0 85 85 0 85 0 0 -85 0 -85 85
0 85 0 0 85 0 85 85 0 85 0 0 -85 0 -85 85 0 85 0 0 85 0 85 85 0 85 0 0 -85
0 -85 85 0 85 0 0 85 0 85 85 0 85 0 0 -85 0 -85 85 0 85 0 0 85 0 85 85 0 85
0 0 -85 0 -85 85 0 85 0 0 85 0 85 85 0 85 0 0 -85 0 -85 85 0 85 0 0 53 0 52
18 -30 c10 -16 21 -40 24 -52 5 -19 2 -23 -17 -23 -20 0 -24 -6 -27 -37 -2
-30 -7 -38 -23 -40 -11 -1 -47 -3 -80 -5 l-60 -3 -3 43 -3 42 -85 0 -84 0 0
-45 0 -45 -85 0 -85 0 0 45 0 45 -85 0 -85 0 0 -29 c0 -27 -2 -29 -32 -24 -18
3 -38 6 -45 7 -7 1 -16 5 -19 9 -4 4 -20 7 -36 7 -16 0 -31 6 -34 15 -5 12
-25 15 -90 15 l-84 0 0 -85 0 -85 85 0 85 0 0 -85 0 -85 32 0 c34 0 29 -13 -9
-25 -17 -5 -23 -2 -23 9 0 13 -14 16 -85 16 l-85 0 0 -34 0 -34 -75 -4 c-42
-2 -80 -1 -85 0 -6 2 -10 19 -10 38 l0 34 -84 0 -85 0 -3 -32 c-2 -27 -7 -33
-28 -34 -14 0 -29 2 -35 5 -5 3 -23 6 -40 7 -64 3 -65 3 -65 29 0 25 -1 25
-85 25 l-85 0 0 -85 0 -84 83 -3 82 -3 3 -82 3 -83 -86 0 c-76 0 -85 -2 -85
-19 0 -16 -12 -20 -75 -30 -99 -15 -95 -15 -95 19 l0 30 -85 0 -85 0 0 -43 c0
-28 -4 -44 -12 -44 -7 0 -46 -3 -85 -7 l-73 -6 0 50 0 50 -85 0 -85 0 0 -61
c0 -60 0 -60 -27 -59 -16 1 -30 1 -33 0 -3 -1 -29 -4 -57 -6 l-53 -3 0 64 0
65 -85 0 -85 0 0 -85 0 -85 40 0 c37 0 40 -2 40 -28 0 -31 38 -89 86 -133 31
-29 128 -91 157 -102 12 -4 17 -17 17 -41 l0 -35 83 -3 c73 -3 82 -5 82 -22 0
-11 -7 -20 -15 -22 -8 -1 -28 -5 -45 -7 -109 -20 -105 -20 -105 18 l0 35 -85
0 -85 0 0 -45 c0 -42 -2 -45 -27 -45 -16 -1 -54 -3 -85 -6 l-58 -6 0 51 0 51
-85 0 -85 0 0 -60 0 -60 -32 -2 c-45 -2 -78 -5 -108 -9 -24 -4 -25 -2 -28 64
l-3 67 -84 0 -85 0 0 -85 c0 -75 2 -85 18 -85 10 0 26 -16 37 -37 11 -20 38
-53 59 -72 21 -20 45 -42 52 -48 7 -7 15 -13 19 -13 4 0 25 -13 48 -29 23 -16
44 -29 47 -29 3 0 17 -6 33 -13 23 -11 27 -18 27 -56 l0 -43 -83 0 c-57 0 -89
-5 -104 -15 -12 -8 -24 -11 -27 -6 -3 5 -14 7 -24 5 -52 -11 -102 -10 -102 3
0 10 -20 13 -85 13 -77 0 -85 -2 -85 -19 0 -16 -7 -19 -48 -18 -27 0 -53 -2
-58 -4 -5 -3 -20 -5 -34 -5 -18 1 -26 7 -28 24 -3 21 -8 22 -88 22 l-84 0 0
-85 0 -85 48 0 c38 0 55 -6 85 -31 34 -28 37 -34 37 -85 l0 -54 85 0 85 0 0
-33 c0 -32 -3 -35 -68 -61 -111 -45 -102 -48 -102 28 l0 66 -85 0 -85 0 0 -85
0 -85 33 -1 32 -1 -29 -10 c-22 -8 -31 -8 -34 1 -2 7 -33 11 -88 11 l-84 0 0
-38 0 -38 -75 -22 c-41 -12 -79 -22 -85 -22 -6 0 -10 26 -10 60 l0 60 85 0 85
0 0 85 0 85 -85 0 -85 0 0 85 0 85 85 0 85 0 0 85 0 85 -85 0 -85 0 0 85 0 85
85 0 85 0 0 85 0 85 -85 0 -85 0 0 85 0 85 85 0 85 0 0 85 0 85 -85 0 -85 0 0
85 0 85 85 0 85 0 0 85 0 85 -85 0 -85 0 0 85 0 85 85 0 85 0 0 85 0 85 -85 0
-85 0 0 85 0 85 85 0 85 0 0 85 0 85 -85 0 -85 0 0 85 0 85 85 0 85 0 0 -85z
m4760 42 c0 -28 -4 -44 -12 -44 -7 0 -46 -3 -85 -7 l-73 -6 0 50 0 50 85 0 85
0 0 -43z m1360 -16 l0 -59 -82 22 -83 22 -3 37 -3 37 85 0 86 0 0 -59z m340
-26 l0 -85 85 0 85 0 0 85 0 85 85 0 85 0 0 -85 0 -85 85 0 85 0 0 85 0 85 85
0 85 0 0 -85 0 -85 85 0 85 0 0 85 0 85 85 0 85 0 0 -85 0 -85 85 0 85 0 0 85
0 85 85 0 85 0 0 -85 0 -85 85 0 85 0 0 85 0 85 85 0 85 0 0 -85 0 -85 85 0
85 0 0 85 0 85 85 0 85 0 0 -85 0 -85 -85 0 -85 0 0 -85 0 -85 85 0 85 0 0
-85 0 -85 -85 0 -85 0 0 -85 0 -85 85 0 85 0 0 -85 0 -85 -85 0 -85 0 0 -76
c0 -57 -3 -75 -12 -71 -7 3 -46 20 -85 38 -72 32 -73 33 -73 71 l0 39 -87 -3
-88 -3 3 88 3 87 -85 0 -86 0 0 -69 0 -69 -37 4 c-21 2 -47 6 -58 8 -11 3 -32
5 -47 5 -27 1 -28 2 -28 61 l0 60 -85 0 -85 0 0 -44 0 -43 -72 14 c-81 17 -98
26 -98 54 0 16 -8 19 -48 19 -44 0 -75 13 -109 46 -8 7 -13 37 -13 68 l0 56
-50 0 c-45 0 -52 3 -60 25 -5 14 -14 25 -20 25 -5 0 -10 6 -10 14 0 7 -7 19
-15 26 -8 7 -15 28 -15 46 0 32 -2 34 -34 34 -19 0 -38 4 -41 10 -3 5 -26 18
-50 29 l-45 20 0 55 0 56 -85 0 -85 0 0 -33 c0 -40 -7 -49 -29 -38 -13 7 -80
17 -133 21 -5 0 -8 11 -8 25 0 25 -1 25 -85 25 l-85 0 0 85 0 85 85 0 85 0 0
-85z m-3211 -369 c9 -10 8 -15 -4 -20 -10 -4 -15 1 -15 14 0 24 4 25 19 6z
m5251 -586 c0 -26 -25 -26 -81 0 l-44 20 63 0 c55 0 62 -2 62 -20z m0 -745 l0
-85 -85 0 -85 0 0 -85 0 -85 85 0 85 0 0 -85 0 -85 -85 0 -85 0 0 -85 0 -85
85 0 85 0 0 -85 0 -85 -85 0 -85 0 0 -85 0 -85 85 0 85 0 0 -85 0 -85 -85 0
-85 0 0 -85 0 -85 85 0 85 0 0 -85 0 -85 -85 0 -85 0 0 -85 0 -85 85 0 85 0 0
-85 0 -85 -85 0 -85 0 0 -85 0 -85 85 0 85 0 0 -85 0 -85 -85 0 -85 0 0 -85 0
-85 85 0 85 0 0 -85 0 -85 -85 0 -85 0 0 -85 0 -85 85 0 85 0 0 -85 0 -85 -85
0 -85 0 0 -85 0 -85 85 0 85 0 0 -85 0 -85 -85 0 -85 0 0 -85 0 -85 85 0 85 0
0 -85 0 -85 -85 0 -85 0 0 -85 0 -85 85 0 85 0 0 -85 0 -85 -85 0 -85 0 0 -85
0 -85 85 0 85 0 0 -85 0 -85 -85 0 -85 0 0 -85 0 -85 -85 0 -85 0 0 85 0 85
-85 0 -85 0 0 -85 0 -85 -85 0 -85 0 0 85 0 85 -85 0 -85 0 0 -85 0 -85 -85 0
-85 0 0 85 0 85 -85 0 -85 0 0 -85 0 -85 -85 0 -85 0 0 85 0 85 -85 0 -85 0 0
-85 0 -85 -85 0 -85 0 0 85 0 85 -85 0 -85 0 0 -85 0 -85 -85 0 -85 0 0 85 0
85 -85 0 -85 0 0 -85 0 -85 -85 0 -85 0 0 85 0 85 -85 0 -85 0 0 -85 0 -85
-85 0 -85 0 0 85 0 85 -85 0 -85 0 0 -85 0 -85 -85 0 -85 0 0 85 0 85 -85 0
-85 0 0 -85 0 -85 -85 0 -85 0 0 85 0 85 -85 0 -85 0 0 -85 0 -85 -85 0 -85 0
0 85 0 85 -85 0 -85 0 0 -85 0 -85 -85 0 -85 0 0 85 0 85 -85 0 -85 0 0 -85 0
-85 -85 0 -85 0 0 85 0 85 -85 0 -85 0 0 -85 0 -85 -85 0 -85 0 0 85 0 85 -85
0 -85 0 0 -85 0 -85 -85 0 -85 0 0 85 0 85 -85 0 -85 0 0 -85 0 -85 -85 0 -85
0 0 55 c0 31 7 69 15 85 15 29 18 30 85 30 l70 0 0 85 0 85 -34 0 -34 0 20 43
c53 113 48 110 48 30 l0 -73 85 0 85 0 0 85 0 84 -79 3 -79 3 40 83 c40 82 40
82 79 82 l39 0 0 85 0 85 43 0 c28 0 44 -5 44 -12 1 -7 4 -46 7 -85 l5 -73
-49 0 -50 0 0 -85 0 -85 85 0 85 0 0 69 c0 102 -1 101 91 101 l79 0 0 85 0 85
-35 0 -34 0 24 53 c14 28 25 58 25 65 0 6 5 12 10 12 6 0 10 -28 10 -65 l0
-65 85 0 85 0 0 85 0 85 -80 0 c-44 0 -80 3 -80 6 0 3 12 31 26 62 14 31 30
67 35 80 7 18 16 22 55 22 l46 0 -4 95 c-1 52 -1 91 0 85 2 -5 29 -10 61 -10
l57 0 2 -85 3 -85 -61 0 -60 0 0 -85 0 -85 85 0 85 0 0 34 c0 19 6 41 13 48 6
7 21 30 31 51 19 36 21 37 73 37 l53 0 0 84 c0 62 -4 85 -13 88 -11 2 -12 8
-1 33 l13 30 1 -32 0 -33 85 0 85 0 0 85 0 85 -60 0 c-33 0 -60 2 -60 5 0 2
16 40 37 85 30 67 40 80 60 80 21 0 23 4 23 50 0 27 8 65 17 85 17 35 18 36
73 33 l55 -3 1 -35 c1 -19 3 -55 5 -80 l4 -45 -78 -3 -77 -3 0 -84 0 -85 85 0
85 0 1 28 c0 26 1 26 9 5 5 -13 13 -23 18 -23 8 0 55 82 58 99 0 3 6 18 12 34
9 21 18 27 41 27 l30 0 3 83 3 82 83 3 82 3 0 84 0 85 -43 0 c-32 0 -44 4 -44
15 0 8 4 15 9 15 4 0 8 5 8 11 0 13 50 122 59 129 4 3 13 24 19 48 7 23 17 42
21 42 5 0 12 12 15 26 7 28 28 54 43 54 5 0 10 -18 11 -41 2 -22 7 -60 11 -85
l8 -44 -58 0 -59 0 0 -85 0 -85 84 0 c48 0 86 4 88 10 2 6 1 -33 0 -85 l-4
-95 86 0 86 0 0 85 0 85 -61 0 c-42 0 -58 3 -53 11 7 11 10 46 13 122 l1 37
50 0 50 0 0 84 0 85 -29 3 -29 3 27 65 26 64 3 -67 3 -67 84 0 85 0 0 85 0 85
-75 0 c-55 0 -74 3 -72 13 1 6 5 14 8 17 3 3 25 35 48 73 34 52 49 67 67 67
20 0 24 5 24 29 0 27 10 43 74 118 14 17 30 23 58 23 37 0 38 1 38 38 0 31 7
45 33 68 49 44 84 64 112 64 14 0 25 6 25 14 0 14 58 39 128 55 l42 9 0 -39 0
-39 85 0 85 0 0 35 c0 33 1 35 28 29 55 -13 128 -48 177 -85 53 -40 115 -104
115 -118 0 -5 7 -14 15 -21 8 -7 14 -22 14 -34 -2 -20 -2 -20 -6 2 -4 21 -9
22 -89 22 l-84 0 0 -85 0 -85 85 0 85 0 0 -85 0 -85 85 0 85 0 0 41 c0 39 2
41 25 37 14 -3 25 -2 25 1 0 10 54 7 65 -4 10 -10 13 -19 20 -57 3 -16 -5 -18
-66 -18 l-69 0 0 -85 0 -85 61 0 c55 0 60 -2 54 -19 -8 -25 9 -35 25 -16 23
28 30 15 30 -60 l0 -75 85 0 85 0 0 85 0 85 -80 0 -80 0 32 37 c46 52 144 150
198 198 25 22 58 55 73 73 l27 34 0 -86 0 -86 85 0 85 0 0 85 0 85 -80 0 c-75
0 -96 8 -67 27 13 9 62 71 90 116 10 15 26 27 36 27 14 0 20 10 25 43 3 23 9
60 13 82 l8 40 73 3 72 3 0 84 c0 46 -4 85 -9 87 -4 2 -5 12 0 23 7 19 8 19 8
-2 1 -22 5 -23 86 -23 l85 0 0 85 0 84 -77 3 -78 3 0 32 c0 17 -3 35 -7 39 -5
4 -8 27 -8 51 l0 43 -85 0 -85 0 0 -85 0 -85 50 0 c28 0 50 -3 50 -8 0 -4 -11
-19 -24 -34 -14 -14 -22 -29 -19 -32 4 -3 0 -6 -7 -6 -7 0 -22 -7 -32 -17 -17
-15 -18 -14 -18 40 l0 57 -84 0 c-48 0 -86 -4 -88 -10 -1 -6 -1 33 0 85 l4 95
-86 0 -86 0 0 -85 c0 -78 2 -85 20 -85 25 0 25 -11 0 -41 l-19 -24 -1 33 0 32
-55 0 -55 0 4 68 c3 37 5 75 5 85 1 14 10 17 51 17 l50 0 0 85 0 85 -85 0 -85
0 0 -85 0 -85 -84 0 -85 0 -3 -37 -3 -38 -21 21 c-11 11 -31 28 -44 37 -24 17
-24 17 23 17 l47 0 0 85 0 85 -65 0 c-50 0 -65 3 -65 15 0 8 -9 19 -20 25 -17
9 -20 21 -20 70 l0 60 -85 0 -85 0 0 -76 0 -76 -29 24 c-35 28 -49 55 -45 88
1 14 3 28 3 33 1 4 17 7 36 7 l35 0 0 84 0 85 -35 3 -35 3 35 32 35 32 0 -34
0 -35 85 0 85 0 0 85 0 85 -37 0 c-35 0 -36 1 -17 15 24 18 54 19 54 1 0 -7 8
-16 18 -18 10 -3 18 -16 20 -32 2 -32 26 -81 54 -110 l19 -21 -55 -3 -56 -3 0
-84 0 -85 85 0 85 0 0 65 c0 36 3 64 8 64 30 -5 55 4 59 21 4 17 14 20 54 20
l48 0 3 57 c3 54 5 57 33 65 46 12 62 2 90 -57 14 -30 25 -56 25 -59 0 -3 -34
-6 -75 -6 l-75 0 0 -85 0 -85 81 0 c65 0 88 4 115 21 19 11 34 25 34 30 0 5 7
9 15 9 8 0 15 4 15 9 0 4 18 20 40 35 l40 26 0 -65 0 -65 85 0 85 0 0 82 c0
86 8 96 20 27 5 -29 3 -55 -6 -82 -8 -22 -14 -75 -14 -118 l0 -79 85 0 85 0 0
73 c0 69 2 74 25 85 14 7 53 12 85 12 l60 0 0 49 c0 42 4 51 26 66 35 23 45 7
42 -60 -3 -48 -4 -50 -35 -53 l-33 -3 0 -65 c0 -97 -6 -104 -95 -104 l-75 0 0
-85 0 -85 85 0 85 0 0 60 c0 57 1 60 28 66 15 4 44 15 64 25 21 11 46 19 58
19 11 0 20 7 20 15 0 8 17 31 38 52 20 21 48 53 62 70 15 20 34 33 48 33 18 0
22 5 22 35 0 36 28 105 43 105 4 0 15 7 23 15 9 9 34 15 60 15 l44 0 0 79 c0
91 0 91 108 91 l62 0 0 32 c0 46 91 137 138 138 l32 0 0 -85z m-2417 -45 l17
-35 -75 -3 -75 -3 0 -65 c0 -55 -2 -63 -14 -52 -8 7 -12 16 -10 20 2 4 0 9 -6
13 -5 3 -10 24 -10 46 0 32 3 39 20 39 17 0 20 7 20 39 0 44 13 51 80 41 28
-4 39 -13 53 -40z m67 -131 c0 -7 14 -28 32 -46 l32 -33 -47 0 -46 0 -3 -79
-3 -79 -70 76 -69 77 72 3 72 3 0 60 c0 54 2 59 15 45 8 -8 15 -20 15 -27z
m-5937 -916 c-9 -7 -23 -13 -30 -13 -10 0 -13 -22 -13 -85 l0 -85 85 0 85 0 0
34 c0 45 11 51 68 36 57 -16 72 -27 72 -51 0 -17 -8 -19 -70 -19 l-70 0 0 -85
0 -85 30 0 c17 0 30 -4 30 -10 0 -5 -4 -10 -10 -10 -5 0 -10 -7 -10 -15 0 -8
-4 -15 -8 -15 -5 0 -14 -10 -20 -22 -9 -20 -11 -17 -11 25 l-1 47 -85 0 -85 0
0 -85 0 -85 61 0 61 0 -26 -32 c-15 -18 -31 -39 -36 -45 -6 -7 -13 -25 -16
-41 -5 -24 -2 -28 18 -30 78 -6 99 -9 105 -15 9 -10 173 -9 173 1 0 10 156 9
166 0 13 -14 164 -9 179 5 8 8 39 15 76 16 34 1 66 4 71 7 5 3 12 -3 15 -15 3
-14 13 -21 28 -21 23 0 25 -8 12 -40 -4 -8 -13 -33 -21 -55 l-15 -40 0 68 -1
67 -85 0 -85 0 0 -85 0 -85 80 0 c76 0 80 -1 71 -19 -6 -10 -7 -21 -4 -25 3
-3 1 -6 -5 -6 -7 0 -11 -3 -10 -7 1 -5 -7 -32 -17 -60 l-20 -53 -47 0 -48 0 0
-83 0 -84 45 -10 c25 -6 63 -9 85 -7 l40 3 0 -80 0 -79 85 0 85 0 0 85 0 85
84 0 c46 0 86 4 88 10 2 5 28 12 59 14 31 3 68 8 83 12 22 5 26 3 26 -15 0
-19 6 -21 55 -21 61 0 62 -1 46 -73 -6 -23 -12 -54 -16 -69 -5 -25 -10 -28
-45 -28 l-40 0 0 -85 c0 -84 0 -85 25 -85 14 0 25 -2 25 -6 0 -17 -34 -151
-40 -159 -5 -5 -10 -23 -13 -40 -3 -16 -10 -42 -15 -56 -11 -29 -11 -47 1 -66
6 -10 -10 -13 -72 -13 l-81 0 0 -85 0 -85 85 0 85 0 0 85 0 85 85 0 c83 0 85
0 85 24 0 21 15 34 40 36 3 0 27 7 54 15 73 22 76 21 76 -30 l0 -45 85 0 85 0
0 69 0 69 47 16 c26 9 64 16 85 16 27 0 38 4 38 15 0 8 1 15 3 15 1 0 35 14
76 30 40 17 77 30 83 30 5 0 8 -19 6 -42 l-3 -43 -82 -3 -83 -3 0 -84 0 -85
64 0 65 0 -6 -47 c-3 -27 -7 -55 -9 -63 -1 -8 -3 -25 -3 -37 -1 -21 -6 -23
-56 -23 l-55 0 0 -85 0 -85 31 0 c34 0 34 -8 0 -80 -17 -36 -17 -75 0 -65 5 4
9 1 9 -5 0 -8 20 -9 65 -5 44 4 65 3 65 -4 0 -7 31 -11 85 -11 l85 0 0 33 c0
27 4 33 22 34 13 1 32 6 43 11 24 11 89 32 98 32 4 0 7 -25 7 -55 l0 -55 85 0
85 0 0 85 0 85 55 0 c55 0 55 0 41 -22 -14 -23 -16 -29 -36 -105 -9 -36 -15
-43 -35 -43 -25 0 -25 -1 -25 -84 0 -63 4 -85 14 -89 9 -4 13 -16 10 -39 -3
-18 -6 -52 -7 -75 -2 -23 -6 -45 -10 -49 -10 -10 -9 -174 1 -174 5 0 10 -20
10 -45 1 -25 4 -63 7 -85 4 -31 2 -40 -10 -40 -12 0 -15 -16 -15 -85 l0 -85
-85 0 -85 0 0 85 0 85 -85 0 -85 0 0 -85 0 -85 -85 0 -85 0 0 85 0 85 -85 0
-85 0 0 -85 0 -85 -85 0 -85 0 0 85 0 85 -85 0 -85 0 0 -85 0 -85 -85 0 -85 0
0 85 0 85 -85 0 -85 0 0 -85 0 -85 -85 0 -85 0 0 85 0 85 -85 0 -85 0 0 -85 0
-85 -85 0 -85 0 0 85 0 85 -85 0 -85 0 0 -85 0 -85 -85 0 -85 0 0 85 0 85 -85
0 -85 0 0 -85 0 -85 -85 0 -85 0 0 85 0 85 -85 0 -85 0 0 -85 0 -85 -85 0 -85
0 0 85 0 85 -85 0 -85 0 0 85 0 85 85 0 85 0 0 85 0 85 -85 0 -85 0 0 85 0 85
85 0 85 0 0 85 0 85 -85 0 -85 0 0 85 0 85 85 0 85 0 0 85 0 85 -85 0 -85 0 0
85 0 85 85 0 85 0 0 85 0 85 -85 0 -85 0 0 85 0 85 85 0 85 0 0 85 0 85 -85 0
-85 0 0 85 0 85 85 0 85 0 0 85 0 85 -85 0 -85 0 0 85 0 85 85 0 85 0 0 85 0
85 -85 0 -85 0 0 85 0 85 85 0 85 0 0 85 0 85 -85 0 -85 0 0 85 0 85 85 0 85
0 0 85 0 85 85 0 c83 0 85 1 85 24 0 23 2 24 30 13 28 -11 29 -13 13 -24z
m6988 -27 c-16 -19 -51 -27 -51 -12 0 19 11 26 38 26 20 0 22 -3 13 -14z
m-3177 -1678 c6 -5 1 -8 -11 -8 -25 0 -26 1 -16 26 5 14 8 15 11 3 3 -7 10
-17 16 -21z"/>
<path d="M510 7275 l0 -85 -85 0 -85 0 0 -85 0 -85 85 0 85 0 0 -85 0 -85 -85
0 -85 0 0 -85 0 -85 85 0 85 0 0 -85 0 -85 -85 0 -85 0 0 -85 0 -85 85 0 85 0
0 -85 0 -85 -85 0 -85 0 0 -85 0 -85 85 0 85 0 0 -85 0 -85 -85 0 -85 0 0 -85
0 -85 85 0 85 0 0 85 0 85 85 0 85 0 0 -85 0 -85 85 0 85 0 0 85 0 85 85 0 85
0 0 -85 0 -85 85 0 85 0 0 85 0 85 -85 0 -85 0 0 85 0 85 -85 0 -85 0 0 85 0
85 85 0 85 0 0 85 0 85 85 0 85 0 0 -85 0 -85 85 0 85 0 0 85 0 85 85 0 85 0
0 -85 0 -85 85 0 85 0 0 85 0 85 -85 0 -85 0 0 85 0 85 -85 0 -85 0 0 85 0 85
85 0 85 0 0 85 0 85 85 0 85 0 0 -85 0 -85 85 0 85 0 0 85 0 85 85 0 85 0 0
-85 0 -85 85 0 85 0 0 85 0 85 85 0 85 0 0 -85 0 -85 85 0 85 0 0 85 0 85 -85
0 -85 0 0 85 0 85 85 0 85 0 0 85 0 85 85 0 85 0 0 -85 0 -85 85 0 85 0 0 85
0 85 85 0 85 0 0 -85 0 -85 85 0 85 0 0 85 0 85 -85 0 -85 0 0 85 0 85 -85 0
-85 0 0 -85 0 -85 -85 0 -85 0 0 85 0 85 -85 0 -85 0 0 -85 0 -85 -85 0 -85 0
0 85 0 85 -85 0 -85 0 0 -85 0 -85 -85 0 -85 0 0 85 0 85 -85 0 -85 0 0 -85 0
-85 -85 0 -85 0 0 85 0 85 -85 0 -85 0 0 -85 0 -85 -85 0 -85 0 0 85 0 85 -85
0 -85 0 0 -85 0 -85 -85 0 -85 0 0 85 0 85 -85 0 -85 0 0 -85 0 -85 -85 0 -85
0 0 85 0 85 -85 0 -85 0 0 -85z m170 -170 l0 -85 85 0 85 0 0 85 0 85 85 0 85
0 0 -85 0 -85 85 0 85 0 0 85 0 85 85 0 85 0 0 -85 0 -85 85 0 85 0 0 85 0 85
85 0 85 0 0 -85 0 -85 85 0 85 0 0 85 0 85 85 0 85 0 0 -85 0 -85 85 0 85 0 0
85 0 85 85 0 85 0 0 -85 0 -85 -85 0 -85 0 0 -85 0 -85 -85 0 -85 0 0 85 0 85
-85 0 -85 0 0 -85 0 -85 -85 0 -85 0 0 85 0 85 -85 0 -85 0 0 -85 0 -85 -85 0
-85 0 0 -85 0 -85 -85 0 -85 0 0 -85 0 -85 85 0 85 0 0 -85 0 -85 -85 0 -85 0
0 85 0 85 -85 0 -85 0 0 -85 0 -85 -85 0 -85 0 0 -85 0 -85 -85 0 -85 0 0 -85
0 -85 85 0 85 0 0 -85 0 -85 -85 0 -85 0 0 85 0 85 -85 0 -85 0 0 85 0 85 85
0 85 0 0 85 0 85 -85 0 -85 0 0 85 0 85 85 0 85 0 0 85 0 85 -85 0 -85 0 0 85
0 85 85 0 85 0 0 85 0 85 -85 0 -85 0 0 85 0 85 85 0 85 0 0 -85z"/>
<path d="M850 6935 l0 -85 -85 0 -85 0 0 -85 0 -85 85 0 85 0 0 -85 0 -85 -85
0 -85 0 0 -85 0 -85 85 0 85 0 0 85 0 85 85 0 85 0 0 85 0 85 85 0 85 0 0 85
0 85 85 0 85 0 0 85 0 85 -85 0 -85 0 0 -85 0 -85 -85 0 -85 0 0 85 0 85 -85
0 -85 0 0 -85z m170 -170 l0 -85 -85 0 -85 0 0 85 0 85 85 0 85 0 0 -85z"/>
<path d="M340 5405 l0 -85 85 0 85 0 0 85 0 85 -85 0 -85 0 0 -85z"/>
<path d="M7310 7275 l0 -85 85 0 85 0 0 -85 0 -85 85 0 85 0 0 -85 0 -85 85 0
85 0 0 85 0 85 85 0 85 0 0 -85 0 -85 85 0 85 0 0 85 0 85 85 0 85 0 0 -85 0
-85 85 0 85 0 0 -85 0 -85 85 0 85 0 0 85 0 85 -85 0 -85 0 0 85 0 85 85 0 85
0 0 85 0 85 -85 0 -85 0 0 85 0 85 -85 0 -85 0 0 -85 0 -85 -85 0 -85 0 0 85
0 85 -85 0 -85 0 0 -85 0 -85 -85 0 -85 0 0 85 0 85 -85 0 -85 0 0 -85 0 -85
-85 0 -85 0 0 85 0 85 -85 0 -85 0 0 -85z m510 -170 l0 -85 -85 0 -85 0 0 85
0 85 85 0 85 0 0 -85z m340 0 l0 -85 -85 0 -85 0 0 85 0 85 85 0 85 0 0 -85z
m340 0 l0 -85 -85 0 -85 0 0 85 0 85 85 0 85 0 0 -85z"/>
<path d="M8500 5405 l0 -85 -85 0 -85 0 0 -85 0 -85 -85 0 -85 0 0 -85 0 -85
-85 0 -85 0 0 -85 0 -85 85 0 85 0 0 -85 0 -85 -85 0 -85 0 0 -85 0 -85 -85 0
-85 0 0 -85 0 -85 -85 0 -85 0 0 -85 0 -85 85 0 85 0 0 -85 0 -85 -85 0 -85 0
0 -85 0 -85 -85 0 -85 0 0 85 0 85 -85 0 -85 0 0 -85 0 -85 85 0 85 0 0 -85 0
-85 -85 0 -85 0 0 -85 0 -85 -85 0 -85 0 0 85 0 85 -85 0 -85 0 0 85 0 85 -85
0 -85 0 0 85 0 85 -85 0 -85 0 0 85 0 85 -85 0 -85 0 0 85 0 85 85 0 85 0 0
85 0 85 -85 0 -85 0 0 -85 0 -85 -85 0 -85 0 0 85 0 85 -85 0 -85 0 0 -85 0
-85 -85 0 -85 0 0 -85 0 -85 -85 0 -85 0 0 -85 0 -85 85 0 85 0 0 -85 0 -85
-85 0 -85 0 0 -85 0 -85 -85 0 -85 0 0 -85 0 -85 85 0 85 0 0 -85 0 -85 -85 0
-85 0 0 -85 0 -85 -85 0 -85 0 0 85 0 85 -85 0 -85 0 0 -85 0 -85 -85 0 -85 0
0 -85 0 -85 -85 0 -85 0 0 -85 0 -85 -85 0 -85 0 0 -85 0 -85 -85 0 -85 0 0
-85 0 -85 -85 0 -85 0 0 -85 0 -85 -85 0 -85 0 0 -85 0 -85 -85 0 -85 0 0 -85
0 -85 -85 0 -85 0 0 -85 0 -85 -85 0 -85 0 0 -85 0 -85 85 0 85 0 0 85 0 85
85 0 85 0 0 -85 0 -85 85 0 85 0 0 85 0 85 85 0 85 0 0 -85 0 -85 85 0 85 0 0
85 0 85 85 0 85 0 0 -85 0 -85 85 0 85 0 0 85 0 85 85 0 85 0 0 -85 0 -85 85
0 85 0 0 85 0 85 85 0 85 0 0 -85 0 -85 85 0 85 0 0 85 0 85 85 0 85 0 0 -85
0 -85 85 0 85 0 0 85 0 85 86 0 85 0 -1 -53 c-1 -28 -1 -67 -1 -84 l1 -33 85
0 85 0 0 85 0 85 85 0 85 0 0 -85 0 -85 85 0 85 0 0 85 0 85 85 0 85 0 0 -85
0 -85 85 0 85 0 0 85 0 85 -85 0 -85 0 0 85 0 85 85 0 85 0 0 85 0 85 85 0 85
0 0 -85 0 -85 85 0 85 0 0 85 0 85 84 0 84 0 1 -81 c0 -45 3 -84 5 -87 3 -3
42 -4 86 -3 l80 2 0 -85 0 -86 85 0 85 0 0 -85 0 -85 85 0 85 0 0 85 0 85 86
0 86 0 -2 -42 c-1 -24 -1 -62 -1 -85 l1 -43 85 0 85 0 0 85 0 85 85 0 85 0 0
-85 0 -85 85 0 85 0 0 85 0 85 -85 0 -85 0 0 85 0 85 -85 0 -85 0 0 -85 0 -85
-85 0 -85 0 0 85 0 85 -85 0 -85 0 0 85 0 85 85 0 85 0 0 -83 c0 -46 2 -86 4
-88 2 -2 41 -3 85 -1 l81 4 0 84 0 84 85 0 85 0 0 -84 0 -84 69 -4 c106 -5
101 -9 101 88 l0 84 -85 0 -85 0 0 85 0 85 85 0 85 0 0 85 0 85 -85 0 -85 0 0
85 0 85 85 0 85 0 0 85 0 85 -85 0 -85 0 0 85 0 85 85 0 85 0 0 85 0 85 -85 0
-85 0 0 85 0 85 85 0 85 0 0 85 0 85 -85 0 -85 0 0 85 0 85 85 0 85 0 0 85 0
85 -85 0 -85 0 0 85 0 85 85 0 85 0 0 85 0 85 -85 0 -85 0 0 85 0 85 85 0 85
0 0 85 0 85 -85 0 -85 0 0 85 0 85 85 0 85 0 0 85 0 85 -85 0 -85 0 0 85 0 85
85 0 85 0 0 85 0 85 -85 0 -85 0 0 85 0 85 85 0 85 0 0 85 0 85 -85 0 -85 0 0
-85z m0 -340 l0 -85 -85 0 -85 0 0 -85 0 -85 85 0 85 0 0 -85 0 -85 -85 0 -85
0 0 -85 0 -85 85 0 85 0 0 -85 0 -85 -85 0 -85 0 0 -85 0 -85 85 0 85 0 0 -85
0 -85 -85 0 -85 0 0 -85 0 -85 85 0 85 0 0 -85 0 -85 -85 0 -85 0 0 -85 0 -85
85 0 85 0 0 -85 0 -85 -85 0 -85 0 0 -85 0 -85 85 0 85 0 0 -85 0 -85 -85 0
-85 0 0 -85 0 -85 85 0 85 0 0 -85 0 -85 -85 0 -85 0 0 -85 0 -85 85 0 85 0 0
-85 0 -85 -85 0 -85 0 0 -85 0 -85 -85 0 -85 0 0 85 0 85 -85 0 -85 0 0 -85 0
-85 -85 0 -85 0 0 -85 0 -85 85 0 85 0 0 -85 0 -85 -85 0 -85 0 0 85 0 85 -27
1 c-16 1 -54 0 -85 -1 l-58 -2 0 86 0 86 -85 0 -85 0 0 85 0 85 -85 0 -85 0 0
-85 0 -85 -85 0 -85 0 0 85 0 85 -85 0 -85 0 0 -85 0 -85 -85 0 -85 0 0 -85 0
-85 -85 0 -85 0 0 -85 0 -85 -85 0 -85 0 0 85 0 85 -85 0 -85 0 0 -85 0 -85
-85 0 -85 0 0 85 0 85 -85 0 -85 0 0 -85 0 -85 -86 0 -85 0 1 68 c1 37 1 75 1
85 -1 15 -12 17 -86 17 l-85 0 0 -85 0 -85 -85 0 -85 0 0 85 0 85 -85 0 -85 0
0 -85 0 -85 -85 0 -85 0 0 85 0 85 -85 0 -85 0 0 -85 0 -85 -85 0 -85 0 0 85
0 85 -85 0 -85 0 0 -85 0 -85 -85 0 -85 0 0 85 0 85 -85 0 -85 0 0 -85 0 -85
-85 0 -85 0 0 85 0 85 85 0 85 0 0 85 0 85 85 0 85 0 0 85 0 85 85 0 85 0 0
85 0 85 85 0 85 0 0 85 0 85 85 0 85 0 0 85 0 85 85 0 85 0 0 85 0 85 85 0 85
0 0 85 0 85 85 0 85 0 0 -85 0 -85 85 0 85 0 0 85 0 85 85 0 85 0 0 85 0 85
85 0 85 0 0 85 0 85 -85 0 -85 0 0 85 0 85 85 0 85 0 0 85 0 85 85 0 85 0 0
85 0 85 -85 0 -85 0 0 85 0 85 85 0 85 0 0 85 0 85 85 0 85 0 0 -85 0 -85 85
0 85 0 0 -85 0 -85 85 0 85 0 0 -85 0 -85 85 0 85 0 0 -85 0 -85 85 0 85 0 0
-85 0 -85 85 0 85 0 0 -85 0 -85 85 0 85 0 0 85 0 85 85 0 85 0 0 85 0 85 85
0 85 0 0 85 0 85 85 0 85 0 0 85 0 85 85 0 85 0 0 85 0 85 -85 0 -85 0 0 85 0
85 85 0 85 0 0 85 0 85 85 0 85 0 0 85 0 85 85 0 85 0 0 85 0 85 -85 0 -85 0
0 85 0 85 85 0 85 0 0 85 0 85 85 0 85 0 0 -85z"/>
<path d="M8160 4385 l0 -85 -85 0 -85 0 0 -85 0 -85 85 0 85 0 0 -85 0 -85
-85 0 -85 0 0 -85 0 -85 -85 0 -85 0 0 -85 0 -85 -85 0 -85 0 0 -85 0 -85 -85
0 -85 0 0 -85 0 -85 -85 0 -85 0 0 -85 0 -85 -85 0 -85 0 0 85 0 85 -85 0 -85
0 0 85 0 85 -85 0 -85 0 0 85 0 85 -85 0 -85 0 0 85 0 85 -85 0 -85 0 0 85 0
85 -85 0 -85 0 0 85 0 85 -85 0 -85 0 0 -85 0 -85 85 0 85 0 0 -85 0 -85 -85
0 -85 0 0 -85 0 -85 -85 0 -85 0 0 -85 0 -85 85 0 85 0 0 -85 0 -85 -85 0 -85
0 0 -85 0 -85 -85 0 -85 0 0 -85 0 -85 -85 0 -85 0 0 -85 0 -85 -85 0 -85 0 0
85 0 85 -85 0 -85 0 0 -85 0 -85 -85 0 -85 0 0 -85 0 -85 -85 0 -85 0 0 -85 0
-85 -85 0 -85 0 0 -85 0 -85 -85 0 -85 0 0 -85 0 -85 -85 0 -85 0 0 -85 0 -85
85 0 85 0 0 85 0 85 85 0 85 0 0 -85 0 -85 85 0 85 0 0 85 0 85 85 0 85 0 0
-85 0 -85 85 0 85 0 0 85 0 85 85 0 85 0 0 -85 0 -85 85 0 85 0 0 85 0 85 85
0 85 0 0 85 0 85 85 0 85 0 0 -85 0 -85 -85 0 -85 0 0 -85 0 -85 85 0 85 0 0
85 0 85 85 0 85 0 0 -85 0 -85 85 0 85 0 0 85 0 85 85 0 85 0 0 -85 0 -85 85
0 85 0 0 85 0 85 85 0 85 0 0 85 0 85 85 0 85 0 0 85 0 85 85 0 85 0 0 -85 0
-85 85 0 85 0 0 85 0 85 85 0 85 0 0 -85 0 -85 85 0 85 0 0 -85 0 -85 85 0 85
0 0 85 0 85 85 0 85 0 0 85 0 85 85 0 85 0 0 -85 0 -85 85 0 85 0 0 85 0 85
-85 0 -85 0 0 85 0 85 85 0 85 0 0 85 0 85 -85 0 -85 0 0 85 0 85 85 0 85 0 0
85 0 85 -85 0 -85 0 0 85 0 85 85 0 85 0 0 85 0 85 -85 0 -85 0 0 85 0 85 85
0 85 0 0 85 0 85 -85 0 -85 0 0 85 0 85 85 0 85 0 0 85 0 85 -85 0 -85 0 0 85
0 85 85 0 85 0 0 85 0 85 -85 0 -85 0 0 -85z m-1700 -680 l0 -85 85 0 85 0 0
-85 0 -85 85 0 85 0 0 -85 0 -85 85 0 85 0 0 -85 0 -85 85 0 85 0 0 -85 0 -85
85 0 85 0 0 85 0 85 85 0 85 0 0 85 0 85 85 0 85 0 0 85 0 85 85 0 85 0 0 85
0 85 85 0 85 0 0 85 0 85 85 0 85 0 0 -85 0 -85 -85 0 -85 0 0 -85 0 -85 85 0
85 0 0 -85 0 -85 -85 0 -85 0 0 -85 0 -85 85 0 85 0 0 -85 0 -85 -85 0 -85 0
0 -85 0 -85 85 0 85 0 0 -85 0 -85 -85 0 -85 0 0 -85 0 -85 -85 0 -85 0 0 -85
0 -85 -85 0 -85 0 0 85 0 85 -85 0 -85 0 0 85 0 85 -85 0 -85 0 0 -85 0 -85
-85 0 -85 0 0 85 0 85 -85 0 -85 0 0 -85 0 -85 -85 0 -85 0 0 -85 0 -85 -85 0
-85 0 0 -85 0 -85 -85 0 -85 0 0 85 0 85 -85 0 -85 0 0 -85 0 -85 -86 0 c-82
0 -85 1 -84 23 1 12 2 50 1 85 l-1 62 -85 0 -85 0 0 85 0 85 -85 0 -85 0 0
-85 0 -85 -85 0 -85 0 0 -85 0 -85 -85 0 -85 0 0 85 0 85 -85 0 -85 0 0 -85 0
-85 -85 0 -85 0 0 85 0 85 -85 0 -85 0 0 -85 0 -85 -85 0 -85 0 0 85 0 85 85
0 85 0 0 85 0 85 85 0 85 0 0 85 0 85 85 0 85 0 0 85 0 85 85 0 85 0 0 -85 0
-85 85 0 85 0 0 85 0 85 85 0 85 0 0 85 0 85 85 0 85 0 0 85 0 85 85 0 85 0 0
85 0 85 85 0 85 0 0 85 0 85 -85 0 -85 0 0 85 0 85 85 0 85 0 0 85 0 85 85 0
85 0 0 -85z"/>
<path d="M6290 3535 l0 -85 85 0 85 0 0 -85 0 -85 -85 0 -85 0 0 -85 0 -85
-85 0 -85 0 0 -85 0 -85 -85 0 -85 0 0 -85 0 -85 -85 0 -85 0 0 -85 0 -85 -85
0 -85 0 0 -85 0 -85 -85 0 -85 0 0 85 0 85 -85 0 -85 0 0 -85 0 -85 -85 0 -85
0 0 -85 0 -85 85 0 85 0 0 85 0 85 85 0 85 0 0 -85 0 -85 85 0 85 0 0 85 0 85
85 0 85 0 0 85 0 85 85 0 85 0 0 -85 0 -85 85 0 85 0 0 -85 0 -85 85 0 85 0 0
85 0 85 85 0 85 0 0 -85 0 -85 85 0 85 0 0 85 0 85 85 0 85 0 0 85 0 85 85 0
85 0 0 85 0 85 85 0 85 0 0 -85 0 -85 85 0 85 0 0 85 0 85 85 0 85 0 0 -85 0
-85 85 0 85 0 0 -85 0 -85 85 0 85 0 0 85 0 85 85 0 85 0 0 85 0 85 -85 0 -85
0 0 85 0 85 85 0 85 0 0 85 0 85 -85 0 -85 0 0 85 0 85 85 0 85 0 0 85 0 85
-85 0 -85 0 0 -85 0 -85 -85 0 -85 0 0 -85 0 -85 -85 0 -85 0 0 -85 0 -85 -85
0 -85 0 0 -85 0 -85 -85 0 -85 0 0 85 0 85 -85 0 -85 0 0 85 0 85 -85 0 -85 0
0 85 0 85 -85 0 -85 0 0 85 0 85 -85 0 -85 0 0 85 0 85 -85 0 -85 0 0 -85z
m340 -340 l0 -85 85 0 85 0 0 -85 0 -85 85 0 85 0 0 -85 0 -85 -85 0 -85 0 0
-85 0 -85 -85 0 -85 0 0 -85 0 -85 -85 0 -85 0 0 85 0 85 -85 0 -85 0 0 -85 0
-85 -85 0 -85 0 0 85 0 85 -85 0 -85 0 0 85 0 85 85 0 85 0 0 85 0 85 85 0 85
0 0 85 0 85 85 0 85 0 0 85 0 85 85 0 85 0 0 -85z m1190 -170 l0 -85 -85 0
-85 0 0 -85 0 -85 85 0 85 0 0 -85 0 -85 -85 0 -85 0 0 85 0 85 -85 0 -85 0 0
85 0 85 85 0 85 0 0 85 0 85 85 0 85 0 0 -85z"/>
<path d="M6460 3025 l0 -85 -85 0 -85 0 0 -85 0 -85 -85 0 -85 0 0 -85 0 -85
85 0 85 0 0 85 0 85 85 0 85 0 0 -85 0 -85 85 0 85 0 0 85 0 85 85 0 85 0 0
85 0 85 -85 0 -85 0 0 85 0 85 -85 0 -85 0 0 -85z m170 -170 l0 -85 -85 0 -85
0 0 85 0 85 85 0 85 0 0 -85z"/>
<path d="M6970 5235 l0 -85 85 0 85 0 0 85 0 85 -85 0 -85 0 0 -85z"/>
<path d="M7310 5235 l0 -85 85 0 85 0 0 -85 0 -85 85 0 85 0 0 85 0 85 -85 0
-85 0 0 85 0 85 -85 0 -85 0 0 -85z"/>
<path d="M6970 1835 l0 -85 85 0 85 0 0 -85 0 -85 85 0 85 0 0 85 0 85 85 0
85 0 0 -85 0 -85 85 0 85 0 0 85 0 85 -62 1 c-35 1 -73 0 -85 -1 -22 -1 -23 2
-23 84 l0 86 -85 0 -85 0 0 -85 0 -85 -85 0 -85 0 0 85 0 85 -85 0 -85 0 0
-85z"/>
<path d="M340 4385 l0 -85 85 0 85 0 0 85 0 85 -85 0 -85 0 0 -85z"/>
<path d="M340 4045 l0 -85 85 0 85 0 0 -85 0 -85 -85 0 -85 0 0 -85 0 -85 85
0 85 0 0 -85 0 -85 -85 0 -85 0 0 -85 0 -85 85 0 85 0 0 -85 0 -85 -85 0 -85
0 0 -85 0 -85 85 0 85 0 0 -85 0 -85 -85 0 -85 0 0 -85 0 -85 85 0 85 0 0 -85
0 -85 -85 0 -85 0 0 -85 0 -85 85 0 85 0 0 -85 0 -85 -85 0 -85 0 0 -85 0 -85
85 0 85 0 0 -85 0 -85 -85 0 -85 0 0 -85 0 -85 85 0 85 0 0 85 0 85 85 0 85 0
0 -85 0 -85 85 0 85 0 0 85 0 85 85 0 85 0 0 -85 0 -85 85 0 85 0 0 85 0 85
85 0 85 0 0 -85 0 -85 85 0 85 0 0 85 0 85 85 0 85 0 0 -85 0 -85 85 0 85 0 0
85 0 85 85 0 85 0 0 -85 0 -85 85 0 85 0 0 85 0 85 85 0 85 0 0 -85 0 -85 85
0 85 0 0 85 0 85 85 0 85 0 0 -85 0 -85 85 0 85 0 0 85 0 85 85 0 85 0 0 -85
0 -85 85 0 85 0 0 85 0 85 -85 0 -85 0 0 85 0 85 85 0 85 0 0 85 0 85 -85 0
-85 0 0 85 0 85 -85 0 -85 0 0 -85 0 -85 -85 0 -85 0 0 85 0 85 -85 0 -85 0 0
85 0 85 -85 0 -85 0 0 85 0 85 85 0 85 0 0 85 0 85 -85 0 -85 0 0 -85 0 -85
-85 0 -85 0 0 85 0 85 -85 0 -85 0 0 -85 0 -85 -85 0 -85 0 0 -85 0 -85 -85 0
-85 0 0 85 0 85 -85 0 -85 0 0 85 0 85 85 0 85 0 0 85 0 85 85 0 85 0 0 85 0
85 -85 0 -85 0 0 85 0 85 85 0 85 0 0 85 0 85 -85 0 -85 0 0 -85 0 -85 -85 0
-85 0 0 -85 0 -85 -85 0 -85 0 0 85 0 85 -85 0 -85 0 0 85 0 85 -85 0 -85 0 0
85 0 85 85 0 85 0 0 85 0 85 -85 0 -85 0 0 85 0 85 -85 0 -85 0 0 -85 0 -85
-85 0 -85 0 0 85 0 85 -85 0 -85 0 0 85 0 85 -85 0 -85 0 0 -85z m340 -340 l0
-85 85 0 85 0 0 85 0 85 85 0 85 0 0 -85 0 -85 -85 0 -85 0 0 -85 0 -85 85 0
85 0 0 -85 0 -85 85 0 85 0 0 -85 0 -85 85 0 85 0 0 -85 0 -85 85 0 85 0 0 85
0 85 85 0 85 0 0 -85 0 -85 -85 0 -85 0 0 -85 0 -85 -85 0 -85 0 0 -85 0 -85
85 0 85 0 0 -85 0 -85 85 0 85 0 0 -85 0 -85 85 0 85 0 0 85 0 85 85 0 85 0 0
85 0 85 85 0 85 0 0 -85 0 -85 85 0 85 0 0 -85 0 -85 85 0 85 0 0 -85 0 -85
85 0 85 0 0 -85 0 -85 85 0 85 0 0 85 0 85 85 0 85 0 0 -85 0 -85 -85 0 -85 0
0 -85 0 -85 -85 0 -85 0 0 85 0 85 -85 0 -85 0 0 -85 0 -85 -85 0 -85 0 0 85
0 85 -85 0 -85 0 0 -85 0 -85 -85 0 -85 0 0 85 0 85 -85 0 -85 0 0 -85 0 -85
-85 0 -85 0 0 85 0 85 -85 0 -85 0 0 -85 0 -85 -85 0 -85 0 0 85 0 85 -85 0
-85 0 0 -85 0 -85 -85 0 -85 0 0 85 0 85 -85 0 -85 0 0 -85 0 -85 -85 0 -85 0
0 85 0 85 -85 0 -85 0 0 85 0 85 85 0 85 0 0 85 0 85 -85 0 -85 0 0 85 0 85
85 0 85 0 0 85 0 85 -85 0 -85 0 0 85 0 85 85 0 85 0 0 85 0 85 -85 0 -85 0 0
85 0 85 85 0 85 0 0 85 0 85 -85 0 -85 0 0 85 0 85 85 0 85 0 0 85 0 85 -85 0
-85 0 0 85 0 85 85 0 85 0 0 -85z"/>
<path d="M680 3365 l0 -85 85 0 85 0 0 -85 0 -85 -85 0 -85 0 0 -85 0 -85 85
0 85 0 0 -85 0 -85 -85 0 -85 0 0 -85 0 -85 85 0 85 0 0 -85 0 -85 -85 0 -85
0 0 -85 0 -85 85 0 85 0 0 -85 0 -85 -85 0 -85 0 0 -85 0 -85 85 0 85 0 0 85
0 85 85 0 85 0 0 -85 0 -85 85 0 85 0 0 85 0 85 85 0 85 0 0 -85 0 -85 85 0
85 0 0 85 0 85 85 0 85 0 0 -85 0 -85 85 0 85 0 0 85 0 85 85 0 85 0 0 -85 0
-85 85 0 85 0 0 85 0 85 85 0 85 0 0 -85 0 -85 85 0 85 0 0 85 0 85 -85 0 -85
0 0 85 0 85 -85 0 -85 0 0 85 0 85 -85 0 -85 0 0 -85 0 -85 -85 0 -85 0 0 -85
0 -85 -85 0 -85 0 0 85 0 85 -85 0 -85 0 0 85 0 85 -85 0 -85 0 0 85 0 85 -85
0 -85 0 0 85 0 85 85 0 85 0 0 85 0 85 -85 0 -85 0 0 85 0 85 -85 0 -85 0 0
85 0 85 -85 0 -85 0 0 85 0 85 -85 0 -85 0 0 -85z m340 -340 l0 -85 85 0 85 0
0 -85 0 -85 -85 0 -85 0 0 -85 0 -85 85 0 85 0 0 -85 0 -85 85 0 85 0 0 -85 0
-85 85 0 85 0 0 -85 0 -85 -85 0 -85 0 0 85 0 85 -85 0 -85 0 0 -85 0 -85 -85
0 -85 0 0 85 0 85 -85 0 -85 0 0 85 0 85 85 0 85 0 0 85 0 85 -85 0 -85 0 0
85 0 85 85 0 85 0 0 85 0 85 -85 0 -85 0 0 85 0 85 85 0 85 0 0 -85z m1190
-850 l0 -85 -85 0 -85 0 0 85 0 85 85 0 85 0 0 -85z"/>
<path d="M1020 2345 l0 -85 85 0 85 0 0 85 0 85 -85 0 -85 0 0 -85z"/>
</g>
</svg>
